<?xml version="1.0" encoding="utf-8"?>
<!-- Generator: Adobe Illustrator 16.0.0, SVG Export Plug-In . SVG Version: 6.00 Build 0)  -->
<!DOCTYPE svg PUBLIC "-//W3C//DTD SVG 1.1//EN" "http://www.w3.org/Graphics/SVG/1.1/DTD/svg11.dtd">
<svg version="1.1" id="Camada_1" xmlns="http://www.w3.org/2000/svg" xmlns:xlink="http://www.w3.org/1999/xlink" x="0px" y="0px"
	 width="338.45px" height="539.97px" viewBox="0 0 338.45 539.97" enable-background="new 0 0 338.45 539.97" xml:space="preserve">
<path fill-rule="evenodd" clip-rule="evenodd" fill="#DFA33F" d="M50.232,421.399c-1.185-2.398-2.99-4.542-5.472-6.403
	c-2.454-1.862-6.346-3.836-11.62-5.979c-5.951-2.369-9.815-4.146-11.564-5.358c-1.749-1.213-2.622-2.651-2.622-4.287
	c0-2.933,2.708-4.4,8.179-4.4c3.074,0,6.063,0.452,9.024,1.381c2.934,0.931,6.122,2.115,9.505,3.582l5.584-13.481
	c-7.727-3.638-15.682-5.444-23.86-5.444c-8.574,0-15.203,1.665-19.883,5.021c-4.683,3.327-6.995,8.038-6.995,14.129
	c0,3.498,0.536,6.459,1.664,8.856c1.1,2.398,2.877,4.513,5.331,6.346c2.425,1.862,6.26,3.864,11.479,6.036
	c3.638,1.523,6.572,2.876,8.744,4.032c2.171,1.129,3.695,2.144,4.597,3.046c0.875,0.903,1.326,2.087,1.326,3.554
	c0,3.863-3.356,5.781-10.07,5.781c-3.271,0-7.051-0.536-11.338-1.636c-4.315-1.101-8.179-2.454-11.619-4.089v15.625
	c3.017,1.325,6.29,2.34,9.758,3.018c3.497,0.676,7.7,1.044,12.663,1.044c9.618,0,16.838-1.862,21.689-5.557
	c4.823-3.722,7.25-9.11,7.25-16.217C51.981,426.672,51.389,423.795,50.232,421.399z"/>
<path fill-rule="evenodd" clip-rule="evenodd" fill="#DFA33F" d="M99.984,424.417c0,4.034-1.326,7.305-3.95,9.731
	c-2.651,2.453-6.147,3.666-10.548,3.666c-6.149,0-9.195-2.595-9.195-7.756c0-3.582,1.354-6.262,4.034-8.039
	c2.707-1.777,6.797-2.735,12.325-2.904l7.333-0.226V424.417z M118.43,450.759v-45.549c0-8.123-2.483-14.215-7.39-18.22
	c-4.908-3.978-11.93-5.98-21.125-5.98c-9.617,0-18.389,2.088-26.258,6.233l6.206,12.635c7.446-3.271,13.905-4.907,19.404-4.907
	c7.136,0,10.718,3.356,10.718,10.041v2.905l-11.959,0.366c-10.323,0.368-18.022,2.285-23.128,5.726
	c-5.104,3.469-7.67,8.828-7.67,16.077c0,6.938,1.889,12.296,5.697,16.048c3.808,3.75,8.997,5.641,15.625,5.641
	c5.358,0,9.729-0.791,13.087-2.37c3.327-1.58,6.599-4.4,9.758-8.489h0.479l3.609,9.842H118.43z"/>
<path fill-rule="evenodd" clip-rule="evenodd" fill="#DFA33F" d="M194.101,450.759v-67.747h-18.557v31.617
	c0,7.926-1.157,13.623-3.441,17.036c-2.313,3.441-6.036,5.162-11.198,5.162c-3.807,0-6.57-1.212-8.292-3.639
	c-1.748-2.425-2.594-6.063-2.594-10.914v-39.262h-18.559v44.055c0,7.955,2.002,14.075,6.063,18.333
	c4.034,4.259,10.013,6.375,17.995,6.375c4.654,0,8.799-0.875,12.438-2.624c3.638-1.749,6.431-4.203,8.434-7.417h0.987l2.481,9.024
	H194.101z"/>
<rect x="208.852" y="356.078" fill-rule="evenodd" clip-rule="evenodd" fill="#DFA33F" width="18.559" height="94.681"/>
<rect x="242.021" y="356.078" fill-rule="evenodd" clip-rule="evenodd" fill="#DFA33F" width="18.558" height="94.681"/>
<path fill-rule="evenodd" clip-rule="evenodd" fill="#DFA33F" d="M332.64,397.566c-2.651-5.331-6.486-9.419-11.451-12.269
	c-4.936-2.848-10.689-4.287-17.148-4.287c-10.463,0-18.586,3.103-24.367,9.279c-5.754,6.206-8.631,14.864-8.631,26.005
	c0,7.164,1.325,13.425,3.976,18.812c2.68,5.358,6.488,9.505,11.451,12.353c4.965,2.877,10.689,4.316,17.177,4.316
	c10.378,0,18.474-3.132,24.284-9.421c5.81-6.261,8.715-14.948,8.715-26.06C336.645,409.13,335.32,402.897,332.64,397.566z
	 M293.21,401.008c2.145-3.356,5.67-5.049,10.577-5.049c4.908,0,8.461,1.692,10.633,5.076c2.144,3.385,3.215,8.461,3.215,15.23
	c0,6.825-1.071,11.93-3.187,15.372c-2.172,3.469-5.67,5.189-10.549,5.189c-4.908,0-8.461-1.749-10.66-5.218
	c-2.172-3.44-3.272-8.573-3.272-15.343C289.967,409.469,291.039,404.364,293.21,401.008z"/>
<path fill-rule="evenodd" clip-rule="evenodd" fill="#CCCCCC" d="M69.157,537.233c1.862,1.805,4.484,2.736,7.896,2.736
	c3.329,0,5.923-0.931,7.813-2.793c1.862-1.889,2.793-4.427,2.793-7.671c0-3.357-0.931-5.952-2.764-7.756
	c-1.862-1.806-4.457-2.709-7.842-2.709c-3.497,0-6.12,0.875-7.953,2.652c-1.833,1.777-2.736,4.371-2.736,7.813
	C66.364,532.833,67.267,535.4,69.157,537.233z"/>
<path fill-rule="evenodd" clip-rule="evenodd" fill="#CCCCCC" d="M138.144,537.882c3.074-0.705,6.093-2.03,9.083-3.948v-15.822
	c-3.019,2.059-6.065,3.553-9.083,4.484c-3.018,0.958-6.29,1.438-9.815,1.438c-9.618,0-14.384-6.712-14.384-20.137
	c0-13.821,4.766-20.73,14.384-20.73c2.481,0,4.963,0.366,7.474,1.128c2.482,0.734,5.19,1.692,8.095,2.877l5.444-14.328
	c-6.233-3.103-13.257-4.625-21.097-4.625c-10.689,0-18.897,3.075-24.651,9.195c-5.725,6.12-8.602,14.977-8.602,26.568
	c0,23.325,10.548,35.002,31.617,35.002C131.262,538.982,135.098,538.587,138.144,537.882z"/>
<path fill-rule="evenodd" clip-rule="evenodd" fill="#CCCCCC" d="M215.706,484.773c-2.68-5.33-6.486-9.42-11.451-12.269
	c-4.963-2.848-10.689-4.287-17.176-4.287c-10.464,0-18.559,3.103-24.34,9.279c-5.754,6.205-8.66,14.863-8.66,26.004
	c0,7.164,1.326,13.425,4.005,18.812c2.652,5.359,6.488,9.505,11.451,12.354c4.936,2.876,10.689,4.316,17.177,4.316
	c10.351,0,18.445-3.13,24.254-9.421c5.81-6.26,8.744-14.948,8.744-26.06C219.71,496.337,218.356,490.104,215.706,484.773z
	 M176.276,488.215c2.143-3.385,5.668-5.049,10.549-5.049c4.936,0,8.461,1.692,10.632,5.076c2.144,3.385,3.245,8.461,3.245,15.23
	c0,6.827-1.073,11.932-3.216,15.372c-2.145,3.469-5.641,5.189-10.52,5.189c-4.936,0-8.49-1.748-10.662-5.217
	c-2.17-3.441-3.271-8.574-3.271-15.344C173.033,496.676,174.104,491.571,176.276,488.215z"/>
<path fill-rule="evenodd" clip-rule="evenodd" fill="#CCCCCC" d="M291.349,503.614c0-7.08,1.129-12.269,3.413-15.542
	c2.257-3.271,5.67-4.907,10.267-4.907c3.555,0,6.149,1.241,7.813,3.695c1.636,2.482,2.481,6.177,2.481,11.112v39.994h18.615V493.32
	c0-8.772-2.002-15.146-5.951-19.123c-3.978-4.005-9.844-5.979-17.571-5.979c-4.484,0-8.518,0.875-12.072,2.623
	c-3.553,1.777-6.261,4.231-8.066,7.417h-1.664c-3.639-6.683-10.549-10.041-20.758-10.041c-4.485,0-8.434,0.875-11.903,2.652
	c-3.469,1.776-6.12,4.23-7.926,7.388h-1.044l-2.509-8.066h-14.187v67.775h18.587v-32.21c0-8.037,1.071-13.82,3.214-17.345
	c2.171-3.497,5.641-5.246,10.436-5.246c3.553,0,6.147,1.241,7.784,3.695c1.665,2.482,2.483,6.177,2.483,11.112v39.994h18.557
	V503.614z"/>
<polygon fill-rule="evenodd" clip-rule="evenodd" fill="#CCCCCC" points="0,0 0,78.605 124.042,0 "/>
<polygon fill-rule="evenodd" clip-rule="evenodd" fill="#CCCCCC" points="0,240.441 0,337.772 152.924,337.772 "/>
<polygon fill-rule="evenodd" clip-rule="evenodd" fill="#E2A342" points="179.266,337.772 206.286,337.772 286.499,0 179.266,0 
	179.266,64.108 10.549,158.027 179.266,255.445 "/>
<polygon fill-rule="evenodd" clip-rule="evenodd" fill="#CCCCCC" points="281.873,337.772 338.45,337.772 338.45,99.476 "/>
</svg>
