<?xml version="1.0" encoding="utf-8"?>
<!-- Generator: Adobe Illustrator 16.0.0, SVG Export Plug-In . SVG Version: 6.00 Build 0)  -->
<!DOCTYPE svg PUBLIC "-//W3C//DTD SVG 1.1//EN" "http://www.w3.org/Graphics/SVG/1.1/DTD/svg11.dtd">
<svg fill="#FAD9A3" version="1.1" id="Camada_1" xmlns="http://www.w3.org/2000/svg" xmlns:xlink="http://www.w3.org/1999/xlink" x="0px" y="0px"
	 width="841.89px" height="595.281px" viewBox="0 0 841.89 595.281" enable-background="new 0 0 841.89 595.281"
	 xml:space="preserve">
<title>Adobe Photoshop icon</title>
<g>
	<g>
		<path d="M123.305,0v595.281h595.281V0H123.305z M683.705,560.4h-525.52V34.88h525.52V560.4z"/>
	</g>
</g>
<g>
	<g>
		<polygon points="433.666,211.139 392.089,211.139 342.978,284.804 293.588,211.139 251.733,211.139 322.331,311.591
			253.966,409.255 295.822,409.255 342.978,338.38 389.856,409.255 431.433,409.255 363.069,311.591 		"/>
	</g>
</g>
<g>
	<g>
		<path d="M584.623,366.283V205.558h-37.391v83.153c-4.84-8.371-20.018-28.183-49.389-28.183c-34.672,0-65.295,30.136-65.295,75.62
			c0,40.117,26.553,75.898,69.48,75.898c29.303,0,45.387-18.879,50.783-28.184c0,0-2.443,27.346,24.555,27.346
			c4.09,0,9.391-0.654,15.906-1.953v-31.811C590.107,377.261,584.623,370.189,584.623,366.283z M547.232,355.679
			c-1.303,3.537-11.975,24.557-35.436,24.557c-24.791,0-40.461-21.943-40.461-43.252c0-19.385,12.766-44.646,38.229-44.646
			c22.785,0,36.178,24.372,37.668,28.462V355.679z"/>
	</g>
</g>
</svg>
