<?xml version="1.0" encoding="utf-8"?>
<!-- Generator: Adobe Illustrator 16.0.0, SVG Export Plug-In . SVG Version: 6.00 Build 0)  -->
<!DOCTYPE svg PUBLIC "-//W3C//DTD SVG 1.1//EN" "http://www.w3.org/Graphics/SVG/1.1/DTD/svg11.dtd">
<svg fill="#FAD9A3" version="1.1" id="Camada_1" xmlns="http://www.w3.org/2000/svg" xmlns:xlink="http://www.w3.org/1999/xlink" x="0px" y="0px"
	 width="283.46px" height="85.04px" viewBox="0 0 283.46 85.04" enable-background="new 0 0 283.46 85.04" xml:space="preserve">
<path fill-rule="evenodd" clip-rule="evenodd" d="M281.668,37.661c-0.357,0.021-0.715,0.061-1.072,0.061
	c-8.506,0.004-17.013,0.003-25.519,0.003c-0.309,0-0.617,0-1.068,0c0.116,0.955,0.177,1.848,0.341,2.722
	c0.521,2.777,1.583,5.292,3.74,7.221c2.381,2.128,5.199,2.905,8.338,2.594c4.346-0.432,6.83-3.116,8.346-6.954
	c0.069-0.174,0.14-0.348,0.229-0.568c2.133,0.266,4.246,0.53,6.434,0.803c-1.737,5.95-5.284,9.946-11.331,11.345
	c-4.632,1.072-9.213,0.793-13.533-1.313c-3.358-1.636-5.742-4.286-7.249-7.713c-0.09-0.204-0.192-0.403-0.333-0.697
	c-1.135,5.529-4.73,8.435-9.828,9.685c-3.938,0.965-7.902,0.823-11.811-0.303c-4.337-1.249-6.975-4.2-8.365-8.391
	c-0.044-0.134-0.095-0.265-0.192-0.533c-0.257,0.501-0.454,0.904-0.669,1.298c-0.227,0.418-0.447,0.843-0.71,1.239
	c-2.51,3.785-6.096,5.977-10.477,6.879c-4.076,0.841-8.08,0.505-11.87-1.283c-3.748-1.767-6.33-4.67-7.844-8.524
	c-0.096-0.244-0.198-0.484-0.282-0.732c-0.084-0.247-0.149-0.5-0.261-0.881c-0.102,0.256-0.174,0.409-0.225,0.568
	c-1.849,5.752-5.866,9.22-11.597,10.688c-4.299,1.102-8.581,0.788-12.633-1.134c-4.361-2.069-7.031-5.585-8.374-10.174
	c-0.952-3.257-1.045-6.594-0.847-9.935c0.169-2.84,0.798-5.605,2.099-8.166c1.688-3.323,4.31-5.677,7.704-7.169
	c1.711-0.751,3.505-1.219,5.38-1.341c0.106-0.007,0.209-0.094,0.313-0.144c1.055,0,2.109,0,3.164,0
	c0.913,0.149,1.839,0.247,2.739,0.454c5.426,1.25,9.288,4.402,11.498,9.536c0.257,0.597,0.49,1.204,0.757,1.862
	c1.972-6.335,6.169-10.099,12.548-11.46c0.689-0.147,1.387-0.262,2.079-0.392c1.103,0,2.205,0,3.308,0
	c0.68,0.103,1.365,0.174,2.037,0.313c6.105,1.259,10.292,4.778,12.482,10.636c0.066,0.179,0.147,0.352,0.266,0.631
	c0.177-3.231,0.497-4.44,1.456-6.006c1.721-2.811,4.366-4.229,7.449-4.981c1.007-0.246,2.036-0.398,3.056-0.593
	c1.103,0,2.205,0,3.308,0c0.329,0.051,0.656,0.116,0.987,0.151c2.531,0.267,4.956,0.883,7.177,2.176
	c3.052,1.775,4.244,4.655,4.811,8.039c-2.036,0.28-4.008,0.552-5.985,0.824c-0.049-0.075-0.103-0.128-0.12-0.192
	c-0.044-0.16-0.067-0.326-0.107-0.487c-0.539-2.194-1.768-3.799-3.911-4.661c-1.946-0.782-3.966-0.779-5.996-0.61
	c-1.454,0.121-2.873,0.401-4.108,1.272c-2.199,1.551-2.657,4.018-0.91,5.893c0.66,0.709,1.66,1.231,2.604,1.525
	c3.488,1.087,7.024,2.021,10.529,3.059c2.099,0.622,4.226,1.228,5.981,2.62c0.706,0.561,1.299,1.264,1.942,1.902
	c0.066-0.016,0.133-0.031,0.199-0.046c0-1.552-0.082-3.11,0.017-4.656c0.261-4.087,1.472-7.85,4.138-11.038
	c2.058-2.461,4.617-4.206,7.737-5.03c1.236-0.327,2.516-0.498,3.775-0.74c0.958,0,1.917,0,2.876,0
	c0.562,0.099,1.121,0.21,1.686,0.292c2.449,0.355,4.686,1.257,6.668,2.722c3.807,2.813,5.837,6.689,6.592,11.293
	c0.16,0.98,0.294,1.965,0.44,2.948C281.668,35.264,281.668,36.462,281.668,37.661z M192.061,36.141
	c0.15,1.52,0.249,3.047,0.471,4.557c0.131,0.887,0.388,1.771,0.71,2.61c1.565,4.067,4.47,6.533,8.85,6.995
	c4.747,0.502,9.176-2.421,10.709-6.996c1.464-4.367,1.613-8.834,0.364-13.243c-1.259-4.438-4.119-7.313-8.878-7.99
	c-4.257-0.606-8.579,1.703-10.503,5.634C192.479,30.373,192.177,33.225,192.061,36.141z M171.734,50.308
	c2.802-0.092,6.041-2.064,7.813-6.01c1.976-4.393,1.96-9.028,0.954-13.671c-1.179-5.439-5.929-9.454-11.944-8.501
	c-3.481,0.551-5.966,2.49-7.574,5.586c-1.076,2.071-1.426,4.321-1.595,6.618c-0.228,3.081,0.013,6.109,1.058,9.029
	C161.897,47.417,165.585,50.368,171.734,50.308z M219.504,43.415c1.765-0.267,3.381-0.511,5.01-0.757
	c0.083,0.404,0.138,0.707,0.206,1.005c0.707,3.072,2.465,5.213,5.535,6.14c1.973,0.596,3.99,0.634,6.03,0.389
	c2.037-0.244,3.807-0.956,5.174-2.557c1.603-1.877,1.943-5.604-1.539-6.984c-0.947-0.375-1.921-0.697-2.9-0.981
	c-3.377-0.978-6.774-1.886-10.138-2.907c-1.934-0.587-3.747-1.483-5.095-3.051c-0.676-0.786-1.201-1.702-1.779-2.536
	C220.544,35.233,220.434,39.308,219.504,43.415z M275.035,32.59c-0.378-6.982-4.831-11.033-11.064-10.601
	c-5.814,0.403-9.502,5.429-9.5,10.601C261.308,32.59,268.146,32.59,275.035,32.59z"/>
<path fill-rule="evenodd" clip-rule="evenodd" d="M44.55,16.81c0.961,0.229,1.939,0.404,2.882,0.694
	c3.646,1.126,5.679,3.733,6.426,7.357c0.315,1.53,0.435,3.124,0.443,4.689c0.042,8.051,0.02,16.102,0.02,24.153
	c0,0.281,0,0.563,0,0.88c-2.069,0-4.071,0-6.167,0c0-0.287,0-0.564,0-0.842c0-7.597,0.02-15.192-0.018-22.788
	c-0.006-1.377-0.174-2.765-0.396-4.126c-0.438-2.691-2.721-4.285-5.296-4.539c-2.539-0.25-4.88,0.349-6.874,2.056
	c-1.646,1.409-2.512,3.252-2.788,5.325c-0.241,1.816-0.294,3.666-0.304,5.501c-0.035,6.158-0.013,12.316-0.013,18.474
	c0,0.286,0,0.573,0,0.918c-2.072,0-4.118,0-6.279,0c0-0.278,0-0.578,0-0.878c0.006-7.524,0.037-15.048-0.001-22.572
	c-0.007-1.47-0.175-2.959-0.454-4.404c-0.538-2.781-2.643-4.371-5.5-4.456c-2.778-0.082-5.184,0.72-7.101,2.759
	c-1.296,1.378-1.97,3.091-2.214,4.934c-0.234,1.772-0.417,3.564-0.432,5.349c-0.051,6.134-0.02,12.269-0.02,18.402
	c0,0.282,0,0.564,0,0.885c-2.086,0-4.109,0-6.182,0c0-12.283,0-24.54,0-36.848c1.83,0,3.659,0,5.562,0c0,1.589,0,3.161,0,4.939
	c0.269-0.282,0.416-0.41,0.533-0.562c2.267-2.927,5.174-4.745,8.898-5.159c0.137-0.015,0.267-0.092,0.401-0.141
	c0.958,0,1.917,0,2.875,0c0.23,0.051,0.457,0.118,0.689,0.15c2.746,0.384,5.15,1.415,6.828,3.729
	c0.554,0.764,0.987,1.616,1.499,2.466c0.139-0.176,0.288-0.355,0.427-0.543c1.903-2.563,4.275-4.478,7.402-5.336
	c0.702-0.193,1.424-0.313,2.136-0.466C42.537,16.81,43.543,16.81,44.55,16.81z"/>
<path fill-rule="evenodd" clip-rule="evenodd" d="M137.298,16.81c0.813,0.165,1.639,0.286,2.438,0.503
	c2.667,0.727,4.809,2.165,7.033,4.708c0-1.493,0-2.879,0-4.341c1.048,0,1.999,0,2.95,0c0.93,0,1.859,0,2.887,0
	c0,0.344,0.001,0.622,0,0.9c-0.006,10.185,0.005,20.369-0.028,30.553c-0.012,3.391-0.079,6.78-0.871,10.115
	c-1.055,4.441-3.894,7.307-7.985,8.97c-1.52,0.618-3.208,0.821-4.817,1.219c-0.109,0.026-0.208,0.096-0.312,0.146
	c-1.725,0-3.451,0-5.176,0c-0.995-0.195-2-0.35-2.983-0.594c-2.965-0.738-5.614-2.022-7.42-4.615
	c-1.375-1.973-1.741-4.231-1.774-6.662c1.704,0.247,3.338,0.556,4.985,0.695c0.917,0.078,1.178,0.501,1.354,1.309
	c0.445,2.044,1.814,3.315,3.734,3.984c3.177,1.108,6.401,1.084,9.535-0.066c2.889-1.061,4.545-3.362,5.013-6.313
	c0.383-2.409,0.338-4.887,0.493-7.514c-1.049,0.913-1.856,1.718-2.764,2.385c-2.722,2.003-5.822,2.649-9.142,2.361
	c-2.606-0.228-5.046-0.957-7.21-2.489c-2.328-1.649-3.923-3.887-5.144-6.414c-1.745-3.614-2.263-7.472-2.021-11.428
	c0.262-4.284,1.398-8.316,4.042-11.786c2.233-2.929,5.207-4.699,8.845-5.334c0.536-0.093,1.07-0.194,1.606-0.292
	C135.477,16.81,136.387,16.81,137.298,16.81z M126.42,35.588c0.078,1.217,0.075,2.447,0.255,3.649
	c0.183,1.218,0.46,2.438,0.847,3.607c1.548,4.688,6.09,7.41,10.909,6.43c4.174-0.85,6.574-3.635,7.638-7.642
	c0.686-2.583,0.82-5.22,0.608-7.885c-0.176-2.203-0.529-4.363-1.603-6.316c-1.802-3.277-4.502-5.329-8.335-5.428
	c-4.083-0.106-6.935,1.995-8.756,5.508C126.681,30.024,126.43,32.792,126.42,35.588z"/>
<path fill-rule="evenodd" clip-rule="evenodd" d="M73.597,16.81c0.926,0.187,1.858,0.343,2.775,0.565
	c5.461,1.326,9.199,4.675,11.271,9.845c1.365,3.406,1.579,6.991,1.364,10.631c-0.141,2.393-0.414,4.757-1.228,7.01
	c-1.871,5.175-5.638,8.35-10.831,9.866c-3.86,1.128-7.756,1.019-11.544-0.318c-5.051-1.781-8.325-5.369-9.86-10.459
	c-1.464-4.854-1.509-9.81-0.279-14.707c1.633-6.501,5.872-10.451,12.376-11.987c0.778-0.184,1.573-0.299,2.361-0.446
	C71.2,16.81,72.398,16.81,73.597,16.81z M60.817,36.126c0.136,1.449,0.198,2.909,0.423,4.344c0.385,2.461,1.238,4.749,2.992,6.593
	c2.479,2.607,5.526,3.638,9.083,3.128c3.709-0.531,6.242-2.635,7.827-5.957c0.893-1.873,1.227-3.877,1.414-5.932
	c0.237-2.593,0.122-5.154-0.479-7.68c-1.126-4.737-4.613-8.002-8.9-8.545c-4.469-0.566-8.714,1.626-10.684,5.686
	C61.213,30.404,60.9,33.231,60.817,36.126z"/>
<path fill-rule="evenodd" clip-rule="evenodd" d="M108.539,16.81c0.948,0.198,1.915,0.332,2.841,0.604
	c4.545,1.334,7.01,3.782,7.916,8.677c0.229,1.237,0.29,2.52,0.294,3.782c0.025,7.932,0.013,15.865,0.013,23.796
	c0,0.285,0,0.569,0,0.902c-2.045,0-4.047,0-6.167,0c0-0.249,0-0.523,0-0.798c0-6.878,0.029-13.756-0.019-20.634
	c-0.013-1.809-0.145-3.635-0.426-5.421c-0.463-2.941-2.413-4.659-5.2-5.241c-3.523-0.736-6.745,0.068-9.369,2.658
	c-1.403,1.385-1.971,3.21-2.229,5.092c-0.221,1.604-0.3,3.237-0.309,4.858c-0.031,6.207-0.009,12.414-0.006,18.621
	c0,0.281,0,0.563,0,0.879c-2.119,0-4.168,0-6.263,0c0-12.276,0-24.535,0-36.848c1.843,0,3.697,0,5.627,0c0,1.621,0,3.243,0,5.083
	c0.487-0.589,0.829-1.02,1.188-1.436c2.259-2.613,5.125-4.057,8.546-4.432c0.136-0.015,0.266-0.092,0.399-0.141
	C106.43,16.81,107.484,16.81,108.539,16.81z"/>
</svg>
