<?xml version="1.0" encoding="utf-8"?>
<!-- Generator: Adobe Illustrator 16.0.0, SVG Export Plug-In . SVG Version: 6.00 Build 0)  -->
<!DOCTYPE svg PUBLIC "-//W3C//DTD SVG 1.1//EN" "http://www.w3.org/Graphics/SVG/1.1/DTD/svg11.dtd">
<svg fill="#FAD9A3" version="1.1" id="Camada_1" xmlns="http://www.w3.org/2000/svg" xmlns:xlink="http://www.w3.org/1999/xlink" x="0px" y="0px"
	 width="841.89px" height="595.281px" viewBox="0 0 841.89 595.281" enable-background="new 0 0 841.89 595.281"
	 xml:space="preserve">
<title>Adobe Photoshop icon</title>
<path d="M269.645,152.789c0-1.488,0.496-2.729,2.48-2.729c15.626-0.744,37.949-1.24,62.008-1.24
	c66.969,0,96.237,36.708,96.237,83.835c0,61.512-45.143,87.803-99.71,87.803c-9.177,0-12.402-0.496-18.851-0.496v94.254
	c0,1.984-0.744,2.729-2.729,2.729h-36.708c-1.984,0-2.729-0.744-2.729-2.729V152.789z M311.81,281.27
	c5.457,0.496,9.921,0.496,19.595,0.496c28.276,0,55.312-9.921,55.312-48.367c0-30.756-19.347-46.382-51.839-46.382
	c-9.673,0-18.851,0.496-23.067,0.744V281.27z M528.095,252.498c-19.098,0-25.547,9.673-25.547,17.61
	c0,8.681,4.465,14.882,30.012,28.028c37.949,18.354,49.855,35.965,49.855,62.008c0,38.693-29.518,59.529-69.451,59.529
	c-21.082,0-39.932-4.465-50.35-10.418c-1.488-0.744-1.984-1.984-1.984-3.969V369.57c0-2.48,1.24-3.225,2.729-1.984
	c15.129,9.922,33.732,14.387,49.605,14.387c19.1,0,27.037-7.938,27.037-18.852c0-8.682-5.457-16.369-30.012-29.268
	c-34.479-16.371-48.615-33.236-48.615-61.016c0-31.252,24.307-57.048,66.721-57.048c20.834,0,36.213,3.225,44.15,6.697
	c1.984,1.24,2.48,3.225,2.48,4.713v33.236c0,1.984-1.24,3.225-3.473,2.48C560.339,256.467,543.722,252.498,528.095,252.498
	L528.095,252.498z"/>
<g>
	<g>
		<path d="M123.305,0v595.281h595.281V0H123.305z M683.705,560.4h-525.52V34.88h525.52V560.4z"/>
	</g>
</g>
</svg>
