<?xml version="1.0" encoding="utf-8"?>
<!-- Generator: Adobe Illustrator 16.0.0, SVG Export Plug-In . SVG Version: 6.00 Build 0)  -->
<!DOCTYPE svg PUBLIC "-//W3C//DTD SVG 1.1//EN" "http://www.w3.org/Graphics/SVG/1.1/DTD/svg11.dtd">
<svg fill="#FAD9A3" version="1.1" id="Camada_1" xmlns="http://www.w3.org/2000/svg" xmlns:xlink="http://www.w3.org/1999/xlink" x="0px" y="0px"
	 width="841.89px" height="595.281px" viewBox="0 0 841.89 595.281" enable-background="new 0 0 841.89 595.281"
	 xml:space="preserve">
<title>JavaScript icon</title>
<g>
	<path d="M597.759,431.799c-10.662,0-19.503,6.501-23.403,15.082c-1.041,2.081-1.561,5.201-1.561,9.882
		c0.78,17.942,9.361,34.065,27.304,34.065c14.043,0,22.884-12.742,22.884-29.905C622.983,445.322,614.662,431.799,597.759,431.799z"
		/>
	<path d="M123.305,0v595.281h595.281V0H123.305z M375.426,517.092H263.609V341.826h108.177v32.505h-68.391v36.405h64.49v32.245
		h-64.49v41.606h72.031V517.092z M445.376,519.693c-20.023,0-39.786-5.201-49.668-10.661l8.062-32.766
		c10.662,5.461,27.044,10.922,43.946,10.922c18.203,0,27.825-7.541,27.825-18.983c0-10.921-8.321-17.162-29.385-24.703
		c-29.125-10.142-48.107-26.265-48.107-51.748c0-29.905,24.964-52.788,66.31-52.788c19.764,0,34.326,4.16,44.728,8.841
		l-8.842,31.985c-7.021-3.381-19.503-8.321-36.665-8.321c-17.163,0-25.484,7.801-25.484,16.902c0,11.182,9.882,16.122,32.505,24.704
		c30.945,11.441,45.507,27.564,45.507,52.268C516.107,494.729,493.484,519.693,445.376,519.693z M600.62,519.953
		c-44.987,0-67.091-33.545-67.091-73.852c0-31.725,11.702-58.249,29.905-75.151c16.902-15.342,38.746-23.663,65.27-24.964
		c7.281-0.52,11.962-0.52,15.863-0.26v30.425c-4.421-0.26-9.102,0-15.343,0.52c-35.105,2.86-50.708,20.804-55.129,40.566h0.78
		c8.321-8.581,20.023-13.521,35.886-13.521c28.345,0,52.268,20.022,52.268,55.128C663.029,492.389,637.286,519.953,600.62,519.953z"
		/>
</g>
</svg>
