<?xml version="1.0" encoding="utf-8"?>
<!-- Generator: Adobe Illustrator 16.0.0, SVG Export Plug-In . SVG Version: 6.00 Build 0)  -->
<!DOCTYPE svg PUBLIC "-//W3C//DTD SVG 1.1//EN" "http://www.w3.org/Graphics/SVG/1.1/DTD/svg11.dtd">
<svg fill="#FAD9A3" version="1.1" id="Camada_1" xmlns="http://www.w3.org/2000/svg" xmlns:xlink="http://www.w3.org/1999/xlink" x="0px" y="0px"
	 width="841.89px" height="595.281px" viewBox="0 0 841.89 595.281" enable-background="new 0 0 841.89 595.281"
	 xml:space="preserve">
<title>Adobe Illustrator icon</title>
<path d="M329.792,336.085l-19.644,74.359c-0.422,2.061-1.24,2.531-3.671,2.531h-36.412c-2.48,0-2.852-0.818-2.48-3.672
	l70.441-246.668c1.24-4.465,2.034-8.384,2.431-20.662c0-1.637,0.818-2.48,2.059-2.48h51.988c1.637,0,2.48,0.446,2.877,2.48
	l78.999,267.727c0.422,2.061,0,3.275-2.059,3.275h-40.926c-2.059,0-3.273-0.496-3.67-2.133l-20.464-74.783h-79.544L329.792,336.085z
	 M398.944,295.78c-6.945-27.433-23.315-87.506-29.466-116.576h-0.422c-5.308,29.02-18.404,78.131-28.648,116.576H398.944z
	 M510.56,157.923c0-15.948,11.037-25.374,25.373-25.374c15.131,0,25.373,10.219,25.373,25.374c0,16.37-10.664,25.374-25.795,25.374
	c-14.881,0-25.051-9.004-25.051-25.374H510.56z M513.337,214.326c0-1.984,0.818-2.729,2.877-2.729h38.941
	c2.184,0,2.977,0.819,2.977,2.877v195.822c0,2.059-0.396,2.877-2.854,2.877h-38.443c-2.48,0-3.299-1.24-3.299-3.225V214.301
	L513.337,214.326z"/>
<g>
	<g>
		<path d="M123.305,0v595.281h595.281V0H123.305z M683.705,560.4h-525.52V34.88h525.52V560.4z"/>
	</g>
</g>
</svg>
